<svg width="29" height="15" viewBox="0 0 29 15" fill="none" xmlns="http://www.w3.org/2000/svg">
<path d="M12.6345 4.456C10.1065 4.104 7.5785 2.488 7.5785 0.664V0.0239992H6.2345V0.664C6.2345 2.52 3.7225 4.104 1.1625 4.456L1.6585 5.496C3.8825 5.128 6.0105 3.992 6.9065 2.36C7.8185 3.976 9.9305 5.144 12.1545 5.496L12.6345 4.456ZM13.3865 7.688V6.632H0.4105V7.688H6.2345V9.512H1.8505V10.568H10.4745V14.2H11.7865V9.512H7.5465V7.688H13.3865ZM27.5133 6.84C25.0013 6.392 22.2653 4.28 22.2653 1.896V0.792H20.8893V1.896C20.8893 4.28 18.1693 6.392 15.6573 6.84L16.2013 7.928C18.4093 7.464 20.6493 5.976 21.5773 3.928C22.5052 5.976 24.7613 7.464 26.9533 7.928L27.5133 6.84ZM22.2333 11.24V7.752H20.9213V11.24H15.1293V12.312H28.1533V11.24H22.2333Z" fill="#333333"/>
</svg>
