<svg width="27" height="16" viewBox="0 0 27 16" fill="none" xmlns="http://www.w3.org/2000/svg">
<path d="M4.5865 4.56H7.2425V3.472H4.6025V1.344H3.3385V3.472H0.6825V4.56H3.3385V5.248C3.3385 7.6 2.2345 10.112 0.2985 11.264L1.0665 12.24C2.4745 11.392 3.4825 9.792 3.9785 7.968C4.5065 9.696 5.5305 11.152 6.9225 11.936L7.6745 10.944C5.7385 9.904 4.5865 7.536 4.5865 5.248V4.56ZM8.4585 6.496H6.2665V7.584H8.4585V14.432H9.7065V1.168H8.4585V6.496ZM11.3385 0.832V15.168H12.6025V0.832H11.3385ZM23.4653 2.336H19.9613V0.688H18.6493V2.336H15.1453V3.392H23.4653V2.336ZM17.2253 6.688C17.2253 5.76 18.0893 5.12 19.3053 5.12C20.5213 5.12 21.3853 5.76 21.3853 6.688C21.3853 7.616 20.5213 8.256 19.3053 8.256C18.0893 8.256 17.2253 7.616 17.2253 6.688ZM22.6173 6.688C22.6173 5.152 21.2413 4.128 19.3053 4.128C17.3533 4.128 15.9773 5.152 15.9773 6.688C15.9773 8.224 17.3533 9.232 19.3053 9.232C21.2413 9.232 22.6173 8.224 22.6173 6.688ZM18.9053 11.328H25.6733V13.936H18.9053V11.328ZM17.6253 14.992H26.9533V10.288H17.6253V14.992ZM25.6253 0.848V5.2H23.2413V6.272H25.6253V9.52H26.9533V0.848H25.6253Z" fill="#333333"/>
</svg>
