<svg width="75" height="16" viewBox="0 0 75 16" fill="none" xmlns="http://www.w3.org/2000/svg">
<path d="M3.65213 10.72H2.34013V14.864H12.2121V13.792H3.65213V10.72ZM3.46013 4.128C3.46013 2.992 4.90013 2.32 7.17213 2.32C9.41213 2.32 10.8521 2.992 10.8521 4.128C10.8521 5.264 9.41213 5.92 7.17213 5.92C4.90013 5.92 3.46013 5.264 3.46013 4.128ZM7.82812 8.464V6.96C10.5001 6.816 12.1961 5.776 12.1961 4.128C12.1961 2.336 10.2281 1.264 7.17213 1.264C4.08413 1.264 2.11613 2.336 2.11613 4.128C2.11613 5.792 3.81213 6.816 6.51613 6.96V8.464H0.676125V9.536H13.6361V8.464H7.82812ZM17.2669 7.312H22.4349V2.16H15.9389V3.232H21.1389V6.24H15.9869V11.728H17.1229C19.8589 11.728 21.7789 11.616 24.0189 11.216L23.8749 10.128C21.7309 10.544 19.8749 10.64 17.2669 10.64V7.312ZM28.8029 6.528H26.4509V0.815999H25.1389V15.2H26.4509V7.632H28.8029V6.528ZM41.8896 0.848H40.5776V11.328H41.8896V0.848ZM31.7296 5.36C31.7296 3.968 32.7856 2.976 34.1776 2.976C35.6016 2.976 36.6576 3.968 36.6576 5.36C36.6576 6.784 35.6016 7.776 34.1776 7.776C32.7856 7.776 31.7296 6.784 31.7296 5.36ZM37.9376 5.36C37.9376 3.296 36.3216 1.84 34.1776 1.84C32.0496 1.84 30.4496 3.296 30.4496 5.36C30.4496 7.44 32.0496 8.912 34.1776 8.912C36.3216 8.912 37.9376 7.44 37.9376 5.36ZM33.9696 13.792V10.256H32.6576V14.864H42.3216V13.792H33.9696ZM52.5865 4.56H55.2425V3.472H52.6025V1.344H51.3385V3.472H48.6825V4.56H51.3385V5.248C51.3385 7.6 50.2345 10.112 48.2985 11.264L49.0665 12.24C50.4745 11.392 51.4825 9.792 51.9785 7.968C52.5065 9.696 53.5305 11.152 54.9225 11.936L55.6745 10.944C53.7385 9.904 52.5865 7.536 52.5865 5.248V4.56ZM56.4585 6.496H54.2665V7.584H56.4585V14.432H57.7065V1.168H56.4585V6.496ZM59.3385 0.832V15.168H60.6025V0.832H59.3385ZM71.4653 2.336H67.9613V0.688H66.6493V2.336H63.1453V3.392H71.4653V2.336ZM65.2253 6.688C65.2253 5.76 66.0893 5.12 67.3053 5.12C68.5213 5.12 69.3853 5.76 69.3853 6.688C69.3853 7.616 68.5213 8.256 67.3053 8.256C66.0893 8.256 65.2253 7.616 65.2253 6.688ZM70.6173 6.688C70.6173 5.152 69.2413 4.128 67.3053 4.128C65.3533 4.128 63.9773 5.152 63.9773 6.688C63.9773 8.224 65.3533 9.232 67.3053 9.232C69.2413 9.232 70.6173 8.224 70.6173 6.688ZM66.9053 11.328H73.6733V13.936H66.9053V11.328ZM65.6253 14.992H74.9533V10.288H65.6253V14.992ZM73.6253 0.848V5.2H71.2413V6.272H73.6253V9.52H74.9533V0.848H73.6253Z" fill="#333333"/>
</svg>
