<?xml version="1.0" encoding="UTF-8"?>
<!--Generator: Apple Native CoreSVG 175-->
<!DOCTYPE svg
PUBLIC "-//W3C//DTD SVG 1.1//EN"
       "http://www.w3.org/Graphics/SVG/1.1/DTD/svg11.dtd">
<svg version="1.1" xmlns="http://www.w3.org/2000/svg" xmlns:xlink="http://www.w3.org/1999/xlink" width="3300" height="2200">
 <!--glyph: "uni10026A.medium", point size: 100.0, font version: "17.3d3e1", template writer version: "65.1"-->
 <g id="Notes">
  <rect height="2200" id="artboard" style="fill:white;opacity:1" width="3300" x="0" y="0"/>
  <line style="fill:none;stroke:black;opacity:1;stroke-width:0.5;" x1="263" x2="3036" y1="292" y2="292"/>
  <text style="stroke:none;fill:black;font-family:sans-serif;font-size:13;font-weight:bold;" transform="matrix(1 0 0 1 263 322)">Weight/Scale Variations</text>
  <text style="stroke:none;fill:black;font-family:sans-serif;font-size:13;text-anchor:middle;" transform="matrix(1 0 0 1 559.711 322)">Ultralight</text>
  <text style="stroke:none;fill:black;font-family:sans-serif;font-size:13;text-anchor:middle;" transform="matrix(1 0 0 1 856.422 322)">Thin</text>
  <text style="stroke:none;fill:black;font-family:sans-serif;font-size:13;text-anchor:middle;" transform="matrix(1 0 0 1 1153.13 322)">Light</text>
  <text style="stroke:none;fill:black;font-family:sans-serif;font-size:13;text-anchor:middle;" transform="matrix(1 0 0 1 1449.84 322)">Regular</text>
  <text style="stroke:none;fill:black;font-family:sans-serif;font-size:13;text-anchor:middle;" transform="matrix(1 0 0 1 1746.56 322)">Medium</text>
  <text style="stroke:none;fill:black;font-family:sans-serif;font-size:13;text-anchor:middle;" transform="matrix(1 0 0 1 2043.27 322)">Semibold</text>
  <text style="stroke:none;fill:black;font-family:sans-serif;font-size:13;text-anchor:middle;" transform="matrix(1 0 0 1 2339.98 322)">Bold</text>
  <text style="stroke:none;fill:black;font-family:sans-serif;font-size:13;text-anchor:middle;" transform="matrix(1 0 0 1 2636.69 322)">Heavy</text>
  <text style="stroke:none;fill:black;font-family:sans-serif;font-size:13;text-anchor:middle;" transform="matrix(1 0 0 1 2933.4 322)">Black</text>
  <line style="fill:none;stroke:black;opacity:1;stroke-width:0.5;" x1="263" x2="3036" y1="1903" y2="1903"/>
  <g transform="matrix(1 0 0 1 263 1933)">
   <path d="M9.24805 0.830078Q10.8691 0.830078 12.2949 0.214844Q13.7207-0.400391 14.8096-1.49414Q15.8984-2.58789 16.5186-4.01367Q17.1387-5.43945 17.1387-7.05078Q17.1387-8.66211 16.5186-10.0879Q15.8984-11.5137 14.8047-12.6074Q13.7109-13.7012 12.2852-14.3164Q10.8594-14.9316 9.23828-14.9316Q7.62695-14.9316 6.20117-14.3164Q4.77539-13.7012 3.69141-12.6074Q2.60742-11.5137 1.9873-10.0879Q1.36719-8.66211 1.36719-7.05078Q1.36719-5.43945 1.9873-4.01367Q2.60742-2.58789 3.69629-1.49414Q4.78516-0.400391 6.21094 0.214844Q7.63672 0.830078 9.24805 0.830078ZM9.24805-0.654297Q7.91992-0.654297 6.7627-1.14746Q5.60547-1.64062 4.73145-2.51953Q3.85742-3.39844 3.36426-4.56055Q2.87109-5.72266 2.87109-7.05078Q2.87109-8.37891 3.35938-9.54102Q3.84766-10.7031 4.72168-11.582Q5.5957-12.4609 6.75293-12.9541Q7.91016-13.4473 9.23828-13.4473Q10.5762-13.4473 11.7334-12.9541Q12.8906-12.4609 13.7695-11.582Q14.6484-10.7031 15.1465-9.54102Q15.6445-8.37891 15.6445-7.05078Q15.6445-5.72266 15.1514-4.56055Q14.6582-3.39844 13.7842-2.51953Q12.9102-1.64062 11.748-1.14746Q10.5859-0.654297 9.24805-0.654297ZM5.6543-7.05078Q5.6543-6.72852 5.85938-6.52832Q6.06445-6.32812 6.40625-6.32812L8.51562-6.32812L8.51562-4.20898Q8.51562-3.88672 8.71094-3.67676Q8.90625-3.4668 9.23828-3.4668Q9.56055-3.4668 9.77051-3.67676Q9.98047-3.88672 9.98047-4.20898L9.98047-6.32812L12.0898-6.32812Q12.4219-6.32812 12.627-6.52832Q12.832-6.72852 12.832-7.05078Q12.832-7.38281 12.627-7.58789Q12.4219-7.79297 12.0898-7.79297L9.98047-7.79297L9.98047-9.90234Q9.98047-10.2344 9.77051-10.4443Q9.56055-10.6543 9.23828-10.6543Q8.90625-10.6543 8.71094-10.4443Q8.51562-10.2344 8.51562-9.90234L8.51562-7.79297L6.40625-7.79297Q6.06445-7.79297 5.85938-7.58789Q5.6543-7.38281 5.6543-7.05078Z"/>
  </g>
  <g transform="matrix(1 0 0 1 281.867 1933)">
   <path d="M11.709 2.91016Q13.75 2.91016 15.5518 2.12891Q17.3535 1.34766 18.7305-0.0292969Q20.1074-1.40625 20.8887-3.20801Q21.6699-5.00977 21.6699-7.05078Q21.6699-9.0918 20.8887-10.8936Q20.1074-12.6953 18.7305-14.0723Q17.3535-15.4492 15.5469-16.2305Q13.7402-17.0117 11.6992-17.0117Q9.6582-17.0117 7.85645-16.2305Q6.05469-15.4492 4.68262-14.0723Q3.31055-12.6953 2.5293-10.8936Q1.74805-9.0918 1.74805-7.05078Q1.74805-5.00977 2.5293-3.20801Q3.31055-1.40625 4.6875-0.0292969Q6.06445 1.34766 7.86621 2.12891Q9.66797 2.91016 11.709 2.91016ZM11.709 1.25Q9.98047 1.25 8.47656 0.605469Q6.97266-0.0390625 5.83496-1.17676Q4.69727-2.31445 4.05762-3.81836Q3.41797-5.32227 3.41797-7.05078Q3.41797-8.7793 4.05762-10.2832Q4.69727-11.7871 5.83008-12.9297Q6.96289-14.0723 8.4668-14.7119Q9.9707-15.3516 11.6992-15.3516Q13.4277-15.3516 14.9316-14.7119Q16.4355-14.0723 17.5781-12.9297Q18.7207-11.7871 19.3652-10.2832Q20.0098-8.7793 20.0098-7.05078Q20.0098-5.32227 19.3701-3.81836Q18.7305-2.31445 17.5928-1.17676Q16.4551-0.0390625 14.9463 0.605469Q13.4375 1.25 11.709 1.25ZM7.17773-7.05078Q7.17773-6.69922 7.41211-6.47461Q7.64648-6.25 8.01758-6.25L10.8887-6.25L10.8887-3.36914Q10.8887-2.99805 11.1133-2.76855Q11.3379-2.53906 11.6895-2.53906Q12.0605-2.53906 12.29-2.76855Q12.5195-2.99805 12.5195-3.36914L12.5195-6.25L15.4004-6.25Q15.7715-6.25 16.001-6.47461Q16.2305-6.69922 16.2305-7.05078Q16.2305-7.42188 16.001-7.65137Q15.7715-7.88086 15.4004-7.88086L12.5195-7.88086L12.5195-10.752Q12.5195-11.1328 12.29-11.3623Q12.0605-11.5918 11.6895-11.5918Q11.3379-11.5918 11.1133-11.3574Q10.8887-11.123 10.8887-10.752L10.8887-7.88086L8.01758-7.88086Q7.63672-7.88086 7.40723-7.65137Q7.17773-7.42188 7.17773-7.05078Z"/>
  </g>
  <g transform="matrix(1 0 0 1 305.646 1933)">
   <path d="M14.9707 5.66406Q17.0605 5.66406 18.96 5.01465Q20.8594 4.36523 22.4512 3.19336Q24.043 2.02148 25.2197 0.429688Q26.3965-1.16211 27.0459-3.06641Q27.6953-4.9707 27.6953-7.05078Q27.6953-9.14062 27.0459-11.04Q26.3965-12.9395 25.2197-14.5312Q24.043-16.123 22.4512-17.2998Q20.8594-18.4766 18.9551-19.126Q17.0508-19.7754 14.9609-19.7754Q12.8711-19.7754 10.9717-19.126Q9.07227-18.4766 7.48535-17.2998Q5.89844-16.123 4.72168-14.5312Q3.54492-12.9395 2.90039-11.04Q2.25586-9.14062 2.25586-7.05078Q2.25586-4.9707 2.90527-3.06641Q3.55469-1.16211 4.72656 0.429688Q5.89844 2.02148 7.49023 3.19336Q9.08203 4.36523 10.9814 5.01465Q12.8809 5.66406 14.9707 5.66406ZM14.9707 3.84766Q13.1641 3.84766 11.5283 3.2959Q9.89258 2.74414 8.53516 1.74805Q7.17773 0.751953 6.17676-0.610352Q5.17578-1.97266 4.62891-3.6084Q4.08203-5.24414 4.08203-7.05078Q4.08203-8.86719 4.62891-10.5029Q5.17578-12.1387 6.17188-13.501Q7.16797-14.8633 8.52539-15.8594Q9.88281-16.8555 11.5186-17.4023Q13.1543-17.9492 14.9609-17.9492Q16.7773-17.9492 18.4131-17.4023Q20.0488-16.8555 21.4111-15.8594Q22.7734-14.8633 23.7695-13.501Q24.7656-12.1387 25.3174-10.5029Q25.8691-8.86719 25.8691-7.05078Q25.8789-5.24414 25.332-3.6084Q24.7852-1.97266 23.7842-0.610352Q22.7832 0.751953 21.4209 1.74805Q20.0586 2.74414 18.4229 3.2959Q16.7871 3.84766 14.9707 3.84766ZM9.19922-7.05078Q9.19922-6.66992 9.45801-6.4209Q9.7168-6.17188 10.1172-6.17188L14.0625-6.17188L14.0625-2.2168Q14.0625-1.81641 14.3115-1.55762Q14.5605-1.29883 14.9512-1.29883Q15.3516-1.29883 15.6104-1.55273Q15.8691-1.80664 15.8691-2.2168L15.8691-6.17188L19.8242-6.17188Q20.2246-6.17188 20.4785-6.4209Q20.7324-6.66992 20.7324-7.05078Q20.7324-7.46094 20.4785-7.71484Q20.2246-7.96875 19.8242-7.96875L15.8691-7.96875L15.8691-11.9141Q15.8691-12.3242 15.6104-12.583Q15.3516-12.8418 14.9512-12.8418Q14.5605-12.8418 14.3115-12.583Q14.0625-12.3242 14.0625-11.9141L14.0625-7.96875L10.1172-7.96875Q9.70703-7.96875 9.45312-7.71484Q9.19922-7.46094 9.19922-7.05078Z"/>
  </g>
  <text style="stroke:none;fill:black;font-family:sans-serif;font-size:13;font-weight:bold;" transform="matrix(1 0 0 1 263 1953)">Design Variations</text>
  <text style="stroke:none;fill:black;font-family:sans-serif;font-size:13;" transform="matrix(1 0 0 1 263 1971)">Symbols are supported in up to nine weights and three scales.</text>
  <text style="stroke:none;fill:black;font-family:sans-serif;font-size:13;" transform="matrix(1 0 0 1 263 1989)">For optimal layout with text and other symbols, vertically align</text>
  <text style="stroke:none;fill:black;font-family:sans-serif;font-size:13;" transform="matrix(1 0 0 1 263 2007)">symbols with the adjacent text.</text>
  <line style="fill:none;stroke:#00AEEF;stroke-width:0.5;opacity:1.0;" x1="776" x2="776" y1="1919" y2="1933"/>
  <g transform="matrix(1 0 0 1 776 1933)">
   <path d="M3.31055 0.15625Q3.70117 0.15625 3.91602-0.00976562Q4.13086-0.175781 4.26758-0.585938L5.52734-4.0332L11.2891-4.0332L12.5488-0.585938Q12.6855-0.175781 12.9004-0.00976562Q13.1152 0.15625 13.4961 0.15625Q13.8867 0.15625 14.1162-0.0585938Q14.3457-0.273438 14.3457-0.644531Q14.3457-0.869141 14.2383-1.17188L9.6582-13.3691Q9.48242-13.8184 9.17969-14.043Q8.87695-14.2676 8.4082-14.2676Q7.5-14.2676 7.17773-13.3789L2.59766-1.16211Q2.49023-0.859375 2.49023-0.634766Q2.49023-0.263672 2.70996-0.0537109Q2.92969 0.15625 3.31055 0.15625ZM6.00586-5.51758L8.37891-12.0898L8.42773-12.0898L10.8008-5.51758Z"/>
  </g>
  <line style="fill:none;stroke:#00AEEF;stroke-width:0.5;opacity:1.0;" x1="793.197" x2="793.197" y1="1919" y2="1933"/>
  <text style="stroke:none;fill:black;font-family:sans-serif;font-size:13;font-weight:bold;" transform="matrix(1 0 0 1 776 1953)">Margins</text>
  <text style="stroke:none;fill:black;font-family:sans-serif;font-size:13;" transform="matrix(1 0 0 1 776 1971)">Leading and trailing margins on the left and right side of each symbol</text>
  <text style="stroke:none;fill:black;font-family:sans-serif;font-size:13;" transform="matrix(1 0 0 1 776 1989)">can be adjusted by modifying the x-location of the margin guidelines.</text>
  <text style="stroke:none;fill:black;font-family:sans-serif;font-size:13;" transform="matrix(1 0 0 1 776 2007)">Modifications are automatically applied proportionally to all</text>
  <text style="stroke:none;fill:black;font-family:sans-serif;font-size:13;" transform="matrix(1 0 0 1 776 2025)">scales and weights.</text>
  <g transform="matrix(1 0 0 1 1289 1933)">
   <path d="M2.8418 1.86523L4.54102 3.57422Q5.18555 4.22852 5.90332 4.17969Q6.62109 4.13086 7.31445 3.35938L18.0078-8.42773L17.041-9.4043L6.42578 2.27539Q6.16211 2.57812 5.89355 2.61719Q5.625 2.65625 5.27344 2.30469L4.10156 1.14258Q3.75 0.791016 3.79395 0.522461Q3.83789 0.253906 4.14062-0.0195312L15.6152-10.8203L14.6387-11.7871L3.04688-0.898438Q2.30469-0.214844 2.25098 0.498047Q2.19727 1.21094 2.8418 1.86523ZM9.25781-16.3281Q8.94531-16.0254 8.90625-15.6348Q8.86719-15.2441 9.04297-14.9512Q9.21875-14.6777 9.55566-14.541Q9.89258-14.4043 10.3809-14.5215Q11.4746-14.7754 12.5977-14.7314Q13.7207-14.6875 14.7949-13.9844L14.209-12.5293Q13.9551-11.9043 14.0674-11.4404Q14.1797-10.9766 14.5801-10.5664L16.875-8.25195Q17.2363-7.88086 17.5781-7.82227Q17.9199-7.76367 18.3398-7.8418L19.4043-8.03711L20.0684-7.36328L20.0293-6.80664Q20-6.43555 20.1221-6.12305Q20.2441-5.81055 20.6055-5.44922L21.3672-4.70703Q21.7285-4.3457 22.1533-4.33105Q22.5781-4.31641 22.9297-4.66797L25.8398-7.58789Q26.1914-7.93945 26.1816-8.35449Q26.1719-8.76953 25.8105-9.13086L25.0391-9.89258Q24.6875-10.2539 24.3799-10.3857Q24.0723-10.5176 23.7109-10.4883L23.1348-10.4395L22.4902-11.0742L22.7344-12.1973Q22.832-12.6172 22.6953-12.9834Q22.5586-13.3496 22.1191-13.7891L19.9219-15.9766Q18.6719-17.2168 17.2607-17.8369Q15.8496-18.457 14.4189-18.4814Q12.9883-18.5059 11.665-17.959Q10.3418-17.4121 9.25781-16.3281ZM10.752-15.957Q11.6602-16.6211 12.7002-16.9043Q13.7402-17.1875 14.8047-17.085Q15.8691-16.9824 16.8701-16.5137Q17.8711-16.0449 18.7012-15.2051L21.1328-12.793Q21.3086-12.6172 21.3525-12.4512Q21.3965-12.2852 21.3379-12.0312L21.0156-10.5469L22.5195-9.0625L23.5059-9.12109Q23.6914-9.13086 23.7891-9.09668Q23.8867-9.0625 24.0332-8.91602L24.6094-8.33984L22.168-5.89844L21.5918-6.47461Q21.4453-6.62109 21.4062-6.71875Q21.3672-6.81641 21.377-7.01172L21.4453-7.98828L19.9512-9.47266L18.4277-9.21875Q18.1836-9.16992 18.042-9.2041Q17.9004-9.23828 17.7148-9.41406L15.7129-11.416Q15.5176-11.5918 15.4932-11.7529Q15.4688-11.9141 15.5859-12.1875L16.4648-14.2773Q15.293-15.3711 13.8281-15.791Q12.3633-16.2109 10.8398-15.7617Q10.7227-15.7324 10.6885-15.8057Q10.6543-15.8789 10.752-15.957Z"/>
  </g>
  <text style="stroke:none;fill:black;font-family:sans-serif;font-size:13;font-weight:bold;" transform="matrix(1 0 0 1 1289 1953)">Exporting</text>
  <text style="stroke:none;fill:black;font-family:sans-serif;font-size:13;" transform="matrix(1 0 0 1 1289 1971)">Symbols should be outlined when exporting to ensure the</text>
  <text style="stroke:none;fill:black;font-family:sans-serif;font-size:13;" transform="matrix(1 0 0 1 1289 1989)">design is preserved when submitting to Xcode.</text>
  <text id="template-version" style="stroke:none;fill:black;font-family:sans-serif;font-size:13;text-anchor:end;" transform="matrix(1 0 0 1 3036 1933)">Template v.3.0</text>
  <text style="stroke:none;fill:black;font-family:sans-serif;font-size:13;text-anchor:end;" transform="matrix(1 0 0 1 3036 1951)">Requires Xcode 13 or greater</text>
  <text id="descriptive-name" style="stroke:none;fill:black;font-family:sans-serif;font-size:13;text-anchor:end;" transform="matrix(1 0 0 1 3036 1969)">Generated from person.fill</text>
  <text style="stroke:none;fill:black;font-family:sans-serif;font-size:13;text-anchor:end;" transform="matrix(1 0 0 1 3036 1987)">Typeset at 100 points</text>
  <text style="stroke:none;fill:black;font-family:sans-serif;font-size:13;" transform="matrix(1 0 0 1 263 726)">Small</text>
  <text style="stroke:none;fill:black;font-family:sans-serif;font-size:13;" transform="matrix(1 0 0 1 263 1156)">Medium</text>
  <text style="stroke:none;fill:black;font-family:sans-serif;font-size:13;" transform="matrix(1 0 0 1 263 1586)">Large</text>
 </g>
 <g id="Guides">
  <g id="H-reference" style="fill:#27AAE1;stroke:none;" transform="matrix(1 0 0 1 339 696)">
   <path d="M0.993347 0L3.6377 0L29.3282-67.1326L30.0301-67.1326L30.0301-70.459L28.1227-70.459ZM11.6882-24.4797L46.9818-24.4797L46.2311-26.7288L12.4382-26.7288ZM55.1193 0L57.7637 0L30.6381-70.459L29.4327-70.459L29.4327-67.1326Z"/>
  </g>
  <line id="Baseline-S" style="fill:none;stroke:#27AAE1;opacity:1;stroke-width:0.5;" x1="263" x2="3036" y1="696" y2="696"/>
  <line id="Capline-S" style="fill:none;stroke:#27AAE1;opacity:1;stroke-width:0.5;" x1="263" x2="3036" y1="625.541" y2="625.541"/>
  <g id="H-reference" style="fill:#27AAE1;stroke:none;" transform="matrix(1 0 0 1 339 1126)">
   <path d="M0.993347 0L3.6377 0L29.3282-67.1326L30.0301-67.1326L30.0301-70.459L28.1227-70.459ZM11.6882-24.4797L46.9818-24.4797L46.2311-26.7288L12.4382-26.7288ZM55.1193 0L57.7637 0L30.6381-70.459L29.4327-70.459L29.4327-67.1326Z"/>
  </g>
  <line id="Baseline-M" style="fill:none;stroke:#27AAE1;opacity:1;stroke-width:0.5;" x1="263" x2="3036" y1="1126" y2="1126"/>
  <line id="Capline-M" style="fill:none;stroke:#27AAE1;opacity:1;stroke-width:0.5;" x1="263" x2="3036" y1="1055.54" y2="1055.54"/>
  <g id="H-reference" style="fill:#27AAE1;stroke:none;" transform="matrix(1 0 0 1 339 1556)">
   <path d="M0.993347 0L3.6377 0L29.3282-67.1326L30.0301-67.1326L30.0301-70.459L28.1227-70.459ZM11.6882-24.4797L46.9818-24.4797L46.2311-26.7288L12.4382-26.7288ZM55.1193 0L57.7637 0L30.6381-70.459L29.4327-70.459L29.4327-67.1326Z"/>
  </g>
  <line id="Baseline-L" style="fill:none;stroke:#27AAE1;opacity:1;stroke-width:0.5;" x1="263" x2="3036" y1="1556" y2="1556"/>
  <line id="Capline-L" style="fill:none;stroke:#27AAE1;opacity:1;stroke-width:0.5;" x1="263" x2="3036" y1="1485.54" y2="1485.54"/>
  <line id="left-margin-Regular-M" style="fill:none;stroke:#00AEEF;stroke-width:0.5;opacity:1.0;" x1="1396.31" x2="1396.31" y1="1030.79" y2="1150.12"/>
  <line id="right-margin-Regular-M" style="fill:none;stroke:#00AEEF;stroke-width:0.5;opacity:1.0;" x1="1503.38" x2="1503.38" y1="1030.79" y2="1150.12"/>
 </g>
 <g id="Symbols">
  <g id="Black-L" transform="matrix(1 0 0 1 2863.35 1556)">
   <path d="M29.2671 23.8585L110.821 23.8585Q117.042 23.8585 120.534 20.9866Q124.025 18.1148 124.025 13.0556Q124.025 7.06171 120.211 0.454253Q116.397-6.15321 109.307-11.9163Q102.216-17.6793 92.2518-21.2606Q82.2871-24.8419 70.0449-24.8419Q57.8026-24.8419 47.8478-21.2606Q37.8929-17.6793 30.8034-11.9163Q23.7139-6.15321 19.8989 0.454253Q16.084 7.06171 16.084 13.0556Q16.084 18.1148 19.5658 20.9866Q23.0476 23.8585 29.2671 23.8585ZM70.0473-35.6931Q77.3306-35.6931 83.2627-39.5074Q89.1947-43.3217 92.6986-49.7887Q96.2025-56.2557 96.2025-64.1929Q96.2025-71.8297 92.6688-78.1844Q89.1351-84.5392 83.2025-88.3611Q77.2698-92.183 70.0473-92.183Q62.8444-92.183 56.8825-88.3408Q50.9206-84.4987 47.4156-78.133Q43.9105-71.7672 43.9117-64.1513Q43.9701-56.2349 47.4454-49.7783Q50.9206-43.3217 56.8527-39.5074Q62.7848-35.6931 70.0473-35.6931Z"/>
  </g>
  <g id="Heavy-L" transform="matrix(1 0 0 1 2566.88 1556)">
   <path d="M28.6389 23.4989L110.953 23.4989Q116.874 23.4989 120.206 20.7803Q123.538 18.0618 123.538 13.2993Q123.538 7.28225 119.758 0.646977Q115.978-5.9883 108.934-11.7792Q101.889-17.5701 91.9655-21.1746Q82.0417-24.779 69.7989-24.779Q57.5561-24.779 47.6445-21.1746Q37.733-17.5701 30.6914-11.7792Q23.6499-5.9883 19.8669 0.646977Q16.084 7.28225 16.084 13.2993Q16.084 18.0618 19.4039 20.7803Q22.7239 23.4989 28.6389 23.4989ZM69.8102-35.731Q76.9783-35.731 82.8604-39.5112Q88.7425-43.2914 92.2335-49.7197Q95.7244-56.1481 95.7244-64.0627Q95.7244-71.7148 92.2084-78.0147Q88.6923-84.3146 82.8074-88.0695Q76.9224-91.8244 69.8102-91.8244Q62.7225-91.8244 56.8152-88.0421Q50.9079-84.2598 47.4114-77.942Q43.9149-71.6243 43.9205-64.0023Q43.9651-56.118 47.4365-49.7047Q50.9079-43.2914 56.7901-39.5112Q62.6722-35.731 69.8102-35.731Z"/>
  </g>
  <g id="Bold-L" transform="matrix(1 0 0 1 2270.47 1556)">
   <path d="M27.8479 23.0457L111.122 23.0457Q116.659 23.0457 119.791 20.5081Q122.924 17.9704 122.924 13.5691Q122.924 7.52896 119.186 0.866592Q115.448-5.79578 108.458-11.6139Q101.467-17.4319 91.5971-21.0596Q81.7269-24.6873 69.4917-24.6873Q57.2562-24.6873 47.3984-21.0596Q37.5406-17.4319 30.5568-11.6139Q23.573-5.79578 19.8285 0.866592Q16.084 7.52896 16.084 13.5691Q16.084 17.9704 19.2042 20.5081Q22.3243 23.0457 27.8479 23.0457ZM69.5181-35.7548Q76.5627-35.7548 82.3796-39.4927Q88.1965-43.2307 91.6609-49.6091Q95.1253-55.9876 95.1253-63.8715Q95.1253-71.5167 91.6397-77.7512Q88.1542-83.9858 82.3306-87.6711Q76.507-91.3565 69.5181-91.3565Q62.554-91.3565 56.7158-87.6397Q50.8777-83.9229 47.4001-77.6629Q43.9226-71.4028 43.9357-63.7955Q43.9649-55.9497 47.4213-49.5902Q50.8777-43.2307 56.6946-39.4927Q62.5115-35.7548 69.5181-35.7548Z"/>
  </g>
  <g id="Semibold-L" transform="matrix(1 0 0 1 1973.97 1556)">
   <path d="M27.3026 22.7333L111.239 22.7333Q116.511 22.7333 119.506 20.3204Q122.5 17.9074 122.5 13.7552Q122.5 7.69904 118.792 1.01799Q115.083-5.66306 108.13-11.4999Q101.176-17.3366 91.3431-20.9803Q81.51-24.624 69.2799-24.624Q57.0495-24.624 47.2288-20.9803Q37.408-17.3366 30.464-11.4999Q23.52-5.66306 19.802 1.01799Q16.084 7.69904 16.084 13.7552Q16.084 17.9074 19.0664 20.3204Q22.0489 22.7333 27.3026 22.7333ZM69.3168-35.7711Q76.2762-35.7711 82.0481-39.48Q87.8201-43.1888 91.2662-49.5328Q94.7123-55.8769 94.7123-63.7397Q94.7123-71.3801 91.2477-77.5696Q87.7832-83.7591 82.0019-87.3965Q76.2207-91.0338 69.3168-91.0338Q62.4379-91.0338 56.6473-87.3622Q50.8568-83.6907 47.3924-77.4704Q43.9279-71.2501 43.9462-63.6529Q43.9648-55.8337 47.4108-49.5112Q50.8568-43.1888 56.6287-39.48Q62.4007-35.7711 69.3168-35.7711Z"/>
  </g>
  <g id="Medium-L" transform="matrix(1 0 0 1 1677.42 1556)">
   <path d="M26.8891 22.4965L111.327 22.4965Q116.399 22.4965 119.289 20.1781Q122.179 17.8597 122.179 13.8962Q122.179 7.828 118.493 1.13279Q114.806-5.56242 107.881-11.4134Q100.956-17.2644 91.1505-20.9202Q81.3454-24.5761 69.1193-24.5761Q56.8927-24.5761 47.1001-20.9202Q37.3075-17.2644 30.3936-11.4134Q23.4798-5.56242 19.7819 1.13279Q16.084 7.828 16.084 13.8962Q16.084 17.8597 18.962 20.1781Q21.84 22.4965 26.8891 22.4965ZM69.1642-35.7835Q76.059-35.7835 81.7968-39.4703Q87.5346-43.157 90.9669-49.475Q94.3992-55.793 94.3992-63.6397Q94.3992-71.2765 90.9505-77.4319Q87.5019-83.5872 81.7527-87.1882Q76.0036-90.7892 69.1642-90.7892Q62.3498-90.7892 56.5954-87.1519Q50.841-83.5146 47.3865-77.3245Q43.9319-71.1344 43.9542-63.5448Q43.9647-55.7457 47.4028-49.4514Q50.841-43.157 56.5788-39.4703Q62.3166-35.7835 69.1642-35.7835Z"/>
  </g>
  <g id="Regular-L" transform="matrix(1 0 0 1 1380.92 1556)">
   <path d="M26.3498 22.1875L111.442 22.1875Q116.252 22.1875 119.006 19.9924Q121.76 17.7974 121.76 14.0802Q121.76 7.99622 118.103 1.28253Q114.445-5.43116 107.556-11.3007Q100.668-17.1702 90.8994-20.8418Q81.1309-24.5135 68.9098-24.5135Q56.6882-24.5135 46.9323-20.8418Q37.1764-17.1702 30.3018-11.3007Q23.4273-5.43116 19.7557 1.28253Q16.084 7.99622 16.084 14.0802Q16.084 17.7974 18.8258 19.9924Q21.5676 22.1875 26.3498 22.1875ZM68.9651-35.7997Q75.7756-35.7997 81.469-39.4577Q87.1623-43.1156 90.5765-49.3996Q93.9907-55.6835 93.9907-63.5094Q93.9907-71.1415 90.5628-77.2522Q87.1349-83.363 81.4276-86.9166Q75.7204-90.4701 68.9651-90.4701Q62.2349-90.4701 56.5276-86.8775Q50.8203-83.2849 47.3788-77.1341Q43.9372-70.9834 43.9646-63.4038Q43.9646-55.631 47.3925-49.3733Q50.8203-43.1156 56.5137-39.4577Q62.207-35.7997 68.9651-35.7997Z"/>
  </g>
  <g id="Light-L" transform="matrix(1 0 0 1 1084.46 1556)">
   <path d="M25.72 21.8249L111.595 21.8249Q116.061 21.8249 118.663 19.6966Q121.264 17.5684 121.264 14.061Q121.264 7.99622 117.635 1.31123Q114.006-5.37376 107.136-11.2147Q100.267-17.0557 90.5558-20.7083Q80.8445-24.3609 68.6808-24.3609Q56.5164-24.3609 46.7986-20.7083Q37.0808-17.0557 30.235-11.2147Q23.3892-5.37376 19.7366 1.31123Q16.084 7.99622 16.084 14.061Q16.084 17.5684 18.6922 19.6966Q21.3005 21.8249 25.72 21.8249ZM68.7743-35.666Q75.623-35.666 81.2495-39.2954Q86.876-42.9248 90.2044-49.161Q93.5328-55.3972 93.5328-63.1849Q93.5328-70.6451 90.1812-76.7273Q86.8297-82.8096 81.1796-86.4013Q75.5296-89.993 68.7743-89.993Q62.006-89.993 56.3559-86.3907Q50.7059-82.7885 47.3311-76.6664Q43.9564-70.5444 44.0027-63.1175Q44.0027-55.3639 47.3543-49.1444Q50.7059-42.9248 56.3324-39.2954Q61.9589-35.666 68.7743-35.666Z"/>
  </g>
  <g id="Thin-L" transform="matrix(1 0 0 1 788.076 1556)">
   <path d="M24.8871 21.3452L111.796 21.3452Q115.809 21.3452 118.208 19.3054Q120.607 17.2656 120.607 14.0356Q120.607 7.99622 117.016 1.34918Q113.425-5.29785 106.581-11.1011Q99.7369-16.9043 90.1014-20.5317Q80.4658-24.159 68.378-24.159Q56.2891-24.159 46.6217-20.5317Q36.9544-16.9043 30.1466-11.1011Q23.3387-5.29785 19.7113 1.34918Q16.084 7.99622 16.084 14.0356Q16.084 17.2656 18.5156 19.3054Q20.9472 21.3452 24.8871 21.3452ZM68.522-35.4892Q75.4211-35.4892 80.9592-39.0808Q86.4973-42.6725 89.7122-48.8455Q92.9272-55.0185 92.9272-62.7557Q92.9272-69.9886 89.6766-76.0331Q86.4259-82.0776 80.8516-85.7198Q75.2772-89.3619 68.522-89.3619Q61.7032-89.3619 56.1288-85.747Q50.5545-82.132 47.2682-76.0479Q43.9818-69.9638 44.0532-62.7388Q44.0532-55.0106 47.3038-48.8416Q50.5545-42.6725 56.0925-39.0808Q61.6306-35.4892 68.522-35.4892Z"/>
  </g>
  <g id="Ultralight-L" transform="matrix(1 0 0 1 491.533 1556)">
   <path d="M24.4604 21.0995L111.9 21.0995Q115.68 21.0995 117.975 19.105Q120.271 17.1105 120.271 14.0225Q120.271 7.99622 116.699 1.36863Q113.128-5.25896 106.297-11.0429Q99.4654-16.8268 89.8686-20.4412Q80.2718-24.0556 68.2229-24.0556Q56.1726-24.0556 46.5312-20.4412Q36.8897-16.8268 30.1013-11.0429Q23.3128-5.25896 19.6984 1.36863Q16.084 7.99622 16.084 14.0225Q16.084 17.1105 18.4251 19.105Q20.7663 21.0995 24.4604 21.0995ZM68.3927-35.3986Q75.3177-35.3986 80.8105-38.9709Q86.3033-42.5433 89.4602-48.6839Q92.617-54.8245 92.617-62.5359Q92.617-69.6523 89.4181-75.6775Q86.2191-81.7026 80.6836-85.3707Q75.148-89.0387 68.3927-89.0387Q61.5481-89.0387 56.0125-85.4172Q50.4769-81.7957 47.2359-75.7311Q43.9949-69.6664 44.079-62.5448Q44.079-54.8297 47.278-48.6865Q50.4769-42.5433 55.9697-38.9709Q61.4625-35.3986 68.3927-35.3986Z"/>
  </g>
  <g id="Black-M" transform="matrix(1 0 0 1 2878.95 1126)">
   <path d="M23.129 10.8083L85.7654 10.8083Q90.7962 10.8083 93.6176 8.4607Q96.439 6.11306 96.439 1.96698Q96.439-2.65426 93.4584-7.74554Q90.4777-12.8368 84.948-17.2739Q79.4182-21.711 71.6708-24.4631Q63.9235-27.2152 54.4471-27.2152Q44.9707-27.2152 37.2262-24.4631Q29.4818-21.711 23.9518-17.2739Q18.4219-12.8368 15.4414-7.74554Q12.4609-2.65426 12.4609 1.96698Q12.4609 6.11306 15.2795 8.4607Q18.098 10.8083 23.129 10.8083ZM54.4465-35.5379Q60.1934-35.5379 64.8231-38.5185Q69.4527-41.4992 72.1669-46.5361Q74.881-51.5731 74.881-57.7366Q74.881-63.6166 72.1385-68.5832Q69.3959-73.5498 64.7664-76.5735Q60.1369-79.5972 54.4465-79.5972Q48.7619-79.5972 44.1038-76.5679Q39.4458-73.5385 36.7319-68.5693Q34.0181-63.6002 34.0178-57.7256Q34.0749-51.5676 36.7603-46.5334Q39.4458-41.4992 44.0754-38.5185Q48.7051-35.5379 54.4465-35.5379Z"/>
  </g>
  <g id="Heavy-M" transform="matrix(1 0 0 1 2582.45 1126)">
   <path d="M22.573 10.4903L85.8802 10.4903Q90.6494 10.4903 93.329 8.28633Q96.0087 6.08239 96.0087 2.20695Q96.0087-2.43867 93.0588-7.55979Q90.109-12.6809 84.6222-17.1479Q79.1354-21.6148 71.4227-24.3913Q63.7099-27.1678 54.2278-27.1678Q44.7456-27.1678 37.0399-24.3913Q29.3342-21.6148 23.8486-17.1479Q18.3629-12.6809 15.4119-7.55979Q12.4609-2.43867 12.4609 2.20695Q12.4609 6.08239 15.1336 8.28633Q17.8062 10.4903 22.573 10.4903ZM54.2323-35.5873Q59.863-35.5873 64.4501-38.5372Q69.0371-41.4871 71.7465-46.4907Q74.4558-51.4943 74.4558-57.6392Q74.4558-63.5501 71.7235-68.4657Q68.9912-73.3813 64.403-76.336Q59.8149-79.2907 54.2323-79.2907Q48.6639-79.2907 44.0539-76.3207Q39.4439-73.3507 36.7323-68.4258Q34.0207-63.5009 34.0229-57.6064Q34.0665-51.4779 36.7552-46.4825Q39.4439-41.4871 44.0309-38.5372Q48.618-35.5873 54.2323-35.5873Z"/>
  </g>
  <g id="Bold-M" transform="matrix(1 0 0 1 2285.98 1126)">
   <path d="M21.9511 10.1344L86.0086 10.1344Q90.4851 10.1344 93.0062 8.09126Q95.5273 6.04808 95.5273 2.47539Q95.5273-2.19749 92.6119-7.352Q89.6965-12.5065 84.2578-17.0068Q78.8191-21.5072 71.1451-24.311Q63.4711-27.1148 53.9824-27.1148Q44.4937-27.1148 36.8314-24.311Q29.1692-21.5072 23.733-17.0068Q18.2969-12.5065 15.3789-7.352Q12.4609-2.19749 12.4609 2.47539Q12.4609 6.04808 14.9703 8.09126Q17.4797 10.1344 21.9511 10.1344ZM53.9927-35.6427Q59.4935-35.6427 64.0328-38.5581Q68.5721-41.4735 71.2762-46.4399Q73.9802-51.4062 73.9802-57.5303Q73.9802-63.4758 71.2594-68.3343Q68.5385-73.1929 63.9966-76.0704Q59.4547-78.9479 53.9927-78.9479Q48.5542-78.9479 43.998-76.0443Q39.4418-73.1407 36.7327-68.2653Q34.0235-63.3899 34.0286-57.4731Q34.0572-51.3776 36.7495-46.4256Q39.4418-41.4735 43.9812-38.5581Q48.5205-35.6427 53.9927-35.6427Z"/>
  </g>
  <g id="Semibold-M" transform="matrix(1 0 0 1 1989.44 1126)">
   <path d="M21.5223 9.88914L86.0971 9.88914Q90.3719 9.88914 92.7837 7.95678Q95.1955 6.02443 95.1955 2.66045Q95.1955-2.03123 92.3038-7.20875Q89.4122-12.3863 84.0066-16.9096Q78.601-21.433 70.9537-24.2556Q63.3064-27.0782 53.8133-27.0782Q44.3201-27.0782 36.6877-24.2556Q29.0554-21.433 23.6534-16.9096Q18.2514-12.3863 15.3562-7.20875Q12.4609-2.03123 12.4609 2.66045Q12.4609 6.02443 14.8578 7.95678Q17.2547 9.88914 21.5223 9.88914ZM53.8275-35.6808Q59.2387-35.6808 63.7451-38.5725Q68.2516-41.4642 70.952-46.4048Q73.6524-51.3454 73.6524-57.4552Q73.6524-63.4245 70.9394-68.2437Q68.2264-73.0629 63.7164-75.8873Q59.2063-78.7116 53.8275-78.7116Q48.4786-78.7116 43.9595-75.8537Q39.4404-72.9959 36.733-68.1546Q34.0255-63.3134 34.0326-57.3811Q34.0507-51.3084 36.7456-46.3863Q39.4404-41.4642 43.9468-38.5725Q48.4533-35.6808 53.8275-35.6808Z"/>
  </g>
  <g id="Medium-M" transform="matrix(1 0 0 1 1692.85 1126)">
   <path d="M21.1972 9.70315L86.1642 9.70315Q90.286 9.70315 92.6149 7.85482Q94.9438 6.00649 94.9438 2.80077Q94.9438-1.90516 92.0702-7.10013Q89.1966-12.2951 83.8161-16.8359Q78.4357-21.3768 70.8086-24.2136Q63.1815-27.0505 53.685-27.0505Q44.1884-27.0505 36.5788-24.2136Q28.9691-21.3768 23.593-16.8359Q18.2169-12.2951 15.3389-7.10013Q12.4609-1.90516 12.4609 2.80077Q12.4609 6.00649 14.7725 7.85482Q17.0841 9.70315 21.1972 9.70315ZM53.7022-35.7097Q59.0455-35.7097 63.527-38.5835Q68.0085-41.4572 70.7061-46.3783Q73.4038-51.2993 73.4038-57.3983Q73.4038-63.3856 70.6967-68.175Q67.9897-72.9644 63.5039-75.7484Q59.0181-78.5324 53.7022-78.5324Q48.4213-78.5324 43.9303-75.7092Q39.4393-72.8861 36.7332-68.0707Q34.027-63.2554 34.0356-57.3114Q34.0458-51.256 36.7426-46.3566Q39.4393-41.4572 43.9208-38.5835Q48.4023-35.7097 53.7022-35.7097Z"/>
  </g>
  <g id="Regular-M" transform="matrix(1 0 0 1 1396.31 1126)">
   <path d="M20.7731 9.46054L86.2518 9.46054Q90.174 9.46054 92.3948 7.72182Q94.6156 5.9831 94.6156 2.9838Q94.6156-1.74072 91.7655-6.95845Q88.9153-12.1762 83.5677-16.7398Q78.22-21.3034 70.6193-24.1589Q63.0187-27.0143 53.5178-27.0143Q44.0167-27.0143 36.4366-24.1589Q28.8565-21.3034 23.5142-16.7398Q18.1719-12.1762 15.3164-6.95845Q12.4609-1.74072 12.4609 2.9838Q12.4609 5.9831 14.6612 7.72182Q16.8615 9.46054 20.7731 9.46054ZM53.5389-35.7475Q58.7935-35.7475 63.2425-38.5977Q67.6915-41.4479 70.3855-46.3436Q73.0795-51.2393 73.0795-57.324Q73.0795-63.3349 70.3803-68.0854Q67.681-72.8359 63.2267-75.5673Q58.7725-78.2986 53.5389-78.2986Q48.3465-78.2986 43.8922-75.5207Q39.4379-72.7429 36.7334-67.9613Q34.029-63.1797 34.0395-57.2205Q34.0395-51.1876 36.7387-46.3178Q39.4379-41.4479 43.8869-38.5977Q48.3358-35.7475 53.5389-35.7475Z"/>
  </g>
  <g id="Light-M" transform="matrix(1 0 0 1 1099.82 1126)">
   <path d="M20.2085 9.1354L86.3886 9.1354Q90.003 9.1354 92.0868 7.45662Q94.1706 5.77783 94.1706 2.96655Q94.1706-1.74072 91.3462-6.93272Q88.5218-12.1247 83.1912-16.6628Q77.8607-21.2008 70.3113-24.0391Q62.7619-26.8775 53.3125-26.8775Q43.8626-26.8775 36.3167-24.0391Q28.7709-21.2008 23.4543-16.6628Q18.1377-12.1247 15.2993-6.93272Q12.4609-1.74072 12.4609 2.96655Q12.4609 5.77783 14.5415 7.45662Q16.622 9.1354 20.2085 9.1354ZM53.3678-35.6276Q58.6567-35.6276 63.0457-38.4522Q67.4348-41.2769 70.0519-46.1297Q72.6689-50.9825 72.6689-57.0331Q72.6689-62.8898 70.0382-67.6148Q67.4074-72.3397 63.0044-75.1053Q58.6014-77.8708 53.3678-77.8708Q48.1412-77.8708 43.7382-75.0843Q39.3353-72.2978 36.6907-67.542Q34.0462-62.7861 34.0737-56.9638Q34.0737-50.9481 36.7045-46.1125Q39.3353-41.2769 43.7243-38.4522Q48.1133-35.6276 53.3678-35.6276Z"/>
  </g>
  <g id="Thin-M" transform="matrix(1 0 0 1 803.401 1126)">
   <path d="M19.4618 8.70537L86.5696 8.70537Q89.7767 8.70537 91.6794 7.10586Q93.582 5.50636 93.582 2.94374Q93.582-1.74072 90.7916-6.89869Q88.0012-12.0567 82.6933-16.5609Q77.3854-21.065 69.9039-23.8808Q62.4224-26.6965 53.041-26.6965Q43.6588-26.6965 36.1582-23.8808Q28.6576-21.065 23.375-16.5609Q18.0924-12.0567 15.2767-6.89869Q12.4609-1.74072 12.4609 2.94374Q12.4609 5.50636 14.3831 7.10586Q16.3053 8.70537 19.4618 8.70537ZM53.1416-35.469Q58.4757-35.469 62.7855-38.2598Q67.0952-41.0507 69.6106-45.8468Q72.126-50.643 72.126-56.6483Q72.126-62.3013 69.5857-66.9924Q67.0454-71.6835 62.7103-74.4943Q58.3752-77.3051 53.1416-77.3051Q47.8697-77.3051 43.5346-74.5072Q39.1995-71.7093 36.6343-66.9874Q34.0691-62.2656 34.1189-56.6242Q34.1189-50.6314 36.6592-45.841Q39.1995-41.0507 43.5093-38.2598Q47.819-35.469 53.1416-35.469Z"/>
  </g>
  <g id="Ultralight-M" transform="matrix(1 0 0 1 506.84 1126)">
   <path d="M19.0793 8.48511L86.6623 8.48511Q89.6609 8.48511 91.4707 6.92621Q93.2805 5.36731 93.2805 2.93205Q93.2805-1.74072 90.5076-6.88126Q87.7346-12.0218 82.4383-16.5087Q77.1419-20.9955 69.6952-23.7997Q62.2485-26.6038 52.902-26.6038Q43.5544-26.6038 36.077-23.7997Q28.5995-20.9955 23.3344-16.5087Q18.0692-12.0218 15.2651-6.88126Q12.4609-1.74072 12.4609 2.93205Q12.4609 5.36731 14.302 6.92621Q16.1431 8.48511 19.0793 8.48511ZM53.0257-35.3878Q58.383-35.3878 62.6522-38.1613Q66.9213-40.9348 69.3846-45.7019Q71.8479-50.4691 71.8479-56.4512Q71.8479-61.9998 69.3539-66.6736Q66.86-71.3473 62.5596-74.1813Q58.2593-77.0153 53.0257-77.0153Q47.7307-77.0153 43.4303-74.2115Q39.13-71.4078 36.6054-66.7034Q34.0807-61.999 34.1421-56.4503Q34.1421-50.4692 36.636-45.702Q39.13-40.9348 43.3991-38.1613Q47.6683-35.3878 53.0257-35.3878Z"/>
  </g>
  <g id="Black-S" transform="matrix(1 0 0 1 2890.68 696)">
   <path d="M18.2617 0.927734L67.1875 0.927734Q71.1914 0.927734 73.4375-0.952148Q75.6836-2.83203 75.6836-6.15234Q75.6836-9.76562 73.3398-13.7451Q70.9961-17.7246 66.6504-21.1914Q62.3047-24.6582 56.2256-26.8066Q50.1465-28.9551 42.7246-28.9551Q35.3027-28.9551 29.2236-26.8066Q23.1445-24.6582 18.7988-21.1914Q14.4531-17.7246 12.1094-13.7451Q9.76562-9.76562 9.76562-6.15234Q9.76562-2.83203 12.0117-0.952148Q14.2578 0.927734 18.2617 0.927734ZM42.7246-35.4492Q47.2656-35.4492 50.9033-37.793Q54.541-40.1367 56.665-44.0918Q58.7891-48.0469 58.7891-52.8809Q58.7891-57.4707 56.6406-61.377Q54.4922-65.2832 50.8545-67.6758Q47.2168-70.0684 42.7246-70.0684Q38.2324-70.0684 34.5703-67.6758Q30.9082-65.2832 28.7842-61.377Q26.6602-57.4707 26.6602-52.8809Q26.709-48.0469 28.8086-44.0918Q30.9082-40.1367 34.5459-37.793Q38.1836-35.4492 42.7246-35.4492Z"/>
  </g>
  <g id="Heavy-S" transform="matrix(1 0 0 1 2594.12 696)">
   <path d="M17.8584 0.697245L67.2682 0.697245Q71.0877 0.697245 73.2301-1.06739Q75.3724-2.83203 75.3724-5.9449Q75.3724-9.58123 73.0517-13.5895Q70.731-17.5978 66.4199-21.0934Q62.1088-24.5891 56.0527-26.7605Q49.9967-28.932 42.5633-28.932Q35.1299-28.932 29.0796-26.7605Q23.0293-24.5891 18.7182-21.0934Q14.407-17.5978 12.0863-13.5895Q9.76562-9.58123 9.76562-5.9449Q9.76562-2.83203 11.9022-1.06739Q14.0388 0.697245 17.8584 0.697245ZM42.5633-35.5068Q47.0006-35.5068 50.6094-37.8275Q54.2183-40.1482 56.3481-44.0803Q58.4779-48.0123 58.4779-52.8348Q58.4779-57.4707 56.3295-61.3366Q54.181-65.2025 50.5721-67.5317Q46.9633-69.8609 42.5633-69.8609Q38.1748-69.8609 34.5473-67.5202Q30.9197-65.1795 28.7899-61.3078Q26.6602-57.4361 26.6602-52.8117Q26.6975-48.0008 28.8086-44.0745Q30.9197-40.1482 34.5286-37.8275Q38.1375-35.5068 42.5633-35.5068Z"/>
  </g>
  <g id="Bold-S" transform="matrix(1 0 0 1 2297.58 696)">
   <path d="M17.4072 0.439453L67.3584 0.439453Q70.9717 0.439453 72.998-1.19629Q75.0244-2.83203 75.0244-5.71289Q75.0244-9.375 72.7295-13.4155Q70.4346-17.4561 66.1621-20.9839Q61.8896-24.5117 55.8594-26.709Q49.8291-28.9062 42.3828-28.9062Q34.9365-28.9062 28.9185-26.709Q22.9004-24.5117 18.6279-20.9839Q14.3555-17.4561 12.0605-13.4155Q9.76562-9.375 9.76562-5.71289Q9.76562-2.83203 11.7798-1.19629Q13.7939 0.439453 17.4072 0.439453ZM42.3828-35.5713Q46.7041-35.5713 50.2808-37.8662Q53.8574-40.1611 55.9937-44.0674Q58.1299-47.9736 58.1299-52.7832Q58.1299-57.4707 55.9814-61.2915Q53.833-65.1123 50.2563-67.3706Q46.6797-69.6289 42.3828-69.6289Q38.1104-69.6289 34.5215-67.3462Q30.9326-65.0635 28.7964-61.2305Q26.6602-57.3975 26.6602-52.7344Q26.6846-47.9492 28.8086-44.0552Q30.9326-40.1611 34.5093-37.8662Q38.0859-35.5713 42.3828-35.5713Z"/>
  </g>
  <g id="Semibold-S" transform="matrix(1 0 0 1 2000.99 696)">
   <path d="M17.0962 0.261719L67.4206 0.261719Q70.8917 0.261719 72.8381-1.28516Q74.7845-2.83203 74.7845-5.55293Q74.7845-9.23281 72.5073-13.2956Q70.2302-17.3583 65.9844-20.9083Q61.7386-24.4584 55.7261-26.6734Q49.7136-28.8885 42.2584-28.8885Q34.8032-28.8885 28.8074-26.6734Q22.8115-24.4584 18.5657-20.9083Q14.3199-17.3583 12.0428-13.2956Q9.76562-9.23281 9.76562-5.55293Q9.76562-2.83203 11.6954-1.28516Q13.6251 0.261719 17.0962 0.261719ZM42.2584-35.6157Q46.4997-35.6157 50.0542-37.8929Q53.6086-40.17 55.7493-44.0585Q57.8899-47.947 57.8899-52.7477Q57.8899-57.4707 55.7415-61.2604Q53.5931-65.0501 50.0386-67.2595Q46.4842-69.4689 42.2584-69.4689Q38.0659-69.4689 34.5037-67.2262Q30.9415-64.9835 28.8008-61.1771Q26.6602-57.3708 26.6602-52.6811Q26.6757-47.9137 28.8086-44.0418Q30.9415-40.17 34.4959-37.8929Q38.0504-35.6157 42.2584-35.6157Z"/>
  </g>
  <g id="Medium-S" transform="matrix(1 0 0 1 1704.37 696)">
   <path d="M16.8604 0.126953L67.4678 0.126953Q70.8311 0.126953 72.7168-1.35254Q74.6025-2.83203 74.6025-5.43164Q74.6025-9.125 72.3389-13.2046Q70.0752-17.2842 65.8496-20.8511Q61.624-24.418 55.625-26.6465Q49.626-28.875 42.1641-28.875Q34.7021-28.875 28.7231-26.6465Q22.7441-24.418 18.5186-20.8511Q14.293-17.2842 12.0293-13.2046Q9.76562-9.125 9.76562-5.43164Q9.76562-2.83203 11.6313-1.35254Q13.4971 0.126953 16.8604 0.126953ZM42.1641-35.6494Q46.3447-35.6494 49.8823-37.9131Q53.4199-40.1768 55.564-44.0518Q57.708-47.9268 57.708-52.7207Q57.708-57.4707 55.5596-61.2368Q53.4111-65.0029 49.8735-67.1753Q46.3359-69.3477 42.1641-69.3477Q38.0322-69.3477 34.4902-67.1353Q30.9482-64.9229 28.8042-61.1367Q26.6602-57.3506 26.6602-52.6406Q26.6689-47.8867 28.8086-44.0317Q30.9482-40.1768 34.4858-37.9131Q38.0234-35.6494 42.1641-35.6494Z"/>
  </g>
  <g id="Regular-S" transform="matrix(1 0 0 1 1407.78 696)">
   <path d="M16.5527-0.0488281L67.5293-0.0488281Q70.752-0.0488281 72.5586-1.44043Q74.3652-2.83203 74.3652-5.27344Q74.3652-8.98438 72.1191-13.0859Q69.873-17.1875 65.6738-20.7764Q61.4746-24.3652 55.4932-26.6113Q49.5117-28.8574 42.041-28.8574Q34.5703-28.8574 28.6133-26.6113Q22.6562-24.3652 18.457-20.7764Q14.2578-17.1875 12.0117-13.0859Q9.76562-8.98438 9.76562-5.27344Q9.76562-2.83203 11.5479-1.44043Q13.3301-0.0488281 16.5527-0.0488281ZM42.041-35.6934Q46.1426-35.6934 49.6582-37.9395Q53.1738-40.1855 55.3223-44.043Q57.4707-47.9004 57.4707-52.6855Q57.4707-57.4707 55.3223-61.2061Q53.1738-64.9414 49.6582-67.0654Q46.1426-69.1895 42.041-69.1895Q37.9883-69.1895 34.4727-67.0166Q30.957-64.8438 28.8086-61.084Q26.6602-57.3242 26.6602-52.5879Q26.6602-47.8516 28.8086-44.0186Q30.957-40.1855 34.4727-37.9395Q37.9883-35.6934 42.041-35.6934Z"/>
  </g>
  <g id="Light-S" transform="matrix(1 0 0 1 1111.26 696)">
   <path d="M16.0533-0.336456L67.6503-0.336456Q70.6006-0.336456 72.2861-1.67503Q73.9716-3.01361 73.9716-5.2887Q73.9716-8.98438 71.7482-13.0632Q69.5249-17.142 65.3408-20.7082Q61.1567-24.2744 55.2207-26.5054Q49.2846-28.7364 41.8594-28.7364Q34.434-28.7364 28.5072-26.5054Q22.5805-24.2744 18.404-20.7082Q14.2275-17.142 11.9966-13.0632Q9.76562-8.98438 9.76562-5.2887Q9.76562-3.01361 11.4419-1.67503Q13.1182-0.336456 16.0533-0.336456ZM41.8897-35.5873Q46.0215-35.5873 49.4841-37.8108Q52.9467-40.0342 55.0271-43.8538Q57.1075-47.6733 57.1075-52.4282Q57.1075-57.077 55.0196-60.7897Q52.9317-64.5025 49.4615-66.6567Q45.9913-68.811 41.8897-68.811Q37.8067-68.811 34.3365-66.6306Q30.8662-64.4501 28.7708-60.7131Q26.6754-56.9761 26.6904-52.3608Q26.6904-47.6397 28.7783-43.837Q30.8662-40.0342 34.3288-37.8108Q37.7914-35.5873 41.8897-35.5873Z"/>
  </g>
  <g id="Thin-S" transform="matrix(1 0 0 1 814.814 696)">
   <path d="M15.3927-0.716868L67.8105-0.716868Q70.4005-0.716868 71.9257-1.98532Q73.4509-3.25376 73.4509-5.30888Q73.4509-8.98438 71.2577-13.0331Q69.0644-17.0818 64.9004-20.6181Q60.7363-24.1544 54.8603-26.3653Q48.9843-28.5763 41.6193-28.5763Q34.2537-28.5763 28.367-26.3653Q22.4802-24.1544 18.3339-20.6181Q14.1875-17.0818 11.9766-13.0331Q9.76562-8.98438 9.76562-5.30888Q9.76562-3.25376 11.3018-1.98532Q12.8381-0.716868 15.3927-0.716868ZM41.6896-35.4471Q45.8614-35.4471 49.2539-37.6406Q52.6464-39.8341 54.6368-43.6035Q56.6272-47.3729 56.6272-52.0878Q56.6272-56.5564 54.6194-60.2391Q52.6115-63.9219 49.2013-66.1162Q45.7911-68.3105 41.6896-68.3105Q37.5665-68.3105 34.1564-66.12Q30.7462-63.9294 28.7209-60.2225Q26.6956-56.5156 26.7304-52.0604Q26.7304-47.3595 28.7383-43.5968Q30.7462-39.8341 34.1386-37.6406Q37.5311-35.4471 41.6896-35.4471Z"/>
  </g>
  <g id="Ultralight-S" transform="matrix(1 0 0 1 518.236 696)">
   <path d="M15.0543-0.911713L67.8925-0.911713Q70.298-0.911713 71.7411-2.14424Q73.1842-3.37677 73.1842-5.31921Q73.1842-8.98438 71.0064-13.0177Q68.8286-17.0509 64.6748-20.5719Q60.5209-24.0929 54.6757-26.2936Q48.8304-28.4943 41.4963-28.4943Q34.1614-28.4943 28.2951-26.2936Q22.4289-24.0929 18.298-20.5719Q14.167-17.0509 11.9663-13.0177Q9.76562-8.98438 9.76562-5.31921Q9.76562-3.37677 11.2301-2.14424Q12.6945-0.911713 15.0543-0.911713ZM41.5871-35.3752Q45.7794-35.3752 49.136-37.5534Q52.4925-39.7316 54.4369-43.4753Q56.3812-47.2191 56.3812-51.9135Q56.3812-56.2897 54.4144-59.9571Q52.4475-63.6246 49.0681-65.8394Q45.6886-68.0542 41.5871-68.0542Q37.4435-68.0542 34.0641-65.8585Q30.6847-63.6627 28.6953-59.9712Q26.7059-56.2798 26.7509-51.9066Q26.7509-47.216 28.7178-43.4738Q30.6847-39.7316 34.0412-37.5534Q37.3978-35.3752 41.5871-35.3752Z"/>
  </g>
 </g>
</svg>
